<?xml version="1.0" encoding="utf-8"?>
<!-- Generator: Adobe Illustrator 20.0.0, SVG Export Plug-In . SVG Version: 6.00 Build 0)  -->
<svg version="1.1" id="Layer_1" opacity="0.3" xmlns="http://www.w3.org/2000/svg" xmlns:xlink="http://www.w3.org/1999/xlink"
	 x="0px" y="0px" viewBox="0 0 643 630.5" style="enable-background:new 0 0 643 630.5;" xml:space="preserve">
<style type="text/css">
	.st0{fill:#00A550;}
	.st1{fill:#FFFFFF;}
	.st2{enable-background:new    ;}
</style>
<g>
	<g>
		<path class="st0" d="M87.6,548.3c-3.1,0-6.1-0.7-9.1-2.2c-3.5-1.8-6.7-4.4-9.6-8.1c-5.7-7.1-9.2-14.4-10.6-22.3
			c-1.1-6.1-1-12.5,0.4-19.6c1.7-9,5.1-18,10.5-28.4c6.4-12.2,14.5-24.4,25.6-38.5c13.9-17.6,29.8-34.9,50.1-54.6
			c4.9-4.8,10-9.5,14.8-14.1l4.5-4.2c7.6-7.1,16.8-13.7,28.1-19.9c14.6-8.1,31.4-14.6,51.4-19.9c13-3.5,26.9-6.4,45.1-9.5
			c13.7-2.3,24.3-4,34.3-5.4c11-1.6,22.3-3.4,33.3-5.4c15.7-2.8,36.2-7.1,56.1-14.6c11.5-4.3,21-9,29.1-14.4
			c20-13.1,34.7-30.6,43.7-52c0.4-0.9,0.7-1.8,1.1-2.7c-7.5,6.3-15.1,12.4-22.6,18.3c-2.4,1.9-4.7,3.7-7,5.6
			c-2.9,2.3-5.8,4.5-8.6,6.7l-0.1,0.1c-2,1.5-4,3.1-6,4.6c-5.8,4.6-12.5,8.4-20.9,11.9c-14.8,6.3-30.7,10.7-47.2,13.3
			c-8.1,1.3-16.6,2.1-25.8,2.7c-11.1,0.6-22.2,0.7-33,0.8c-2.1,0-4.1,0-6.2,0c-6.7,0.1-13.9,0.1-20.9,0.4c-13.4,0.6-24.2,1.6-34,3.4
			c-15.5,2.8-29.1,7.4-41.6,14.1c-2.7,1.5-5.2,3.6-8.2,6.2c-5.8,5.1-11.5,10.6-17,15.9c-3.1,3-6.4,6.1-9.6,9.2
			c-7.7,7.2-14.8,13.7-22.7,19.7c-2.6,2-5.4,3.9-9.1,6.1c-2.5,1.5-5.1,2.5-7.8,3c-0.9,0.2-1.8,0.2-2.7,0.2c-4.4,0-8.2-2-10.8-5.6
			c-3.1-4.3-3.8-8.9-4-12.1c-0.4-5.3-0.2-10.7,0.6-16.1c3.1-20.9,8.9-42.2,17.5-65.2c4-10.7,9.9-21,18.6-32.4
			c13.9-18.1,30.5-33.9,49.5-47c17.9-12.3,38-21.4,59.7-26.9c12.4-3.1,24.7-5.5,36.5-7.1c9.5-1.3,19.3-2.4,29.2-3.3
			c7.7-0.7,15.2-1.3,23.6-2c10.1-0.8,18.3-1.6,26-2.4c20.8-2.1,37.3-4.9,52.2-8.6c12.1-3,24.2-7.3,36.8-13.1
			c9.9-4.5,21.4-9.9,31.8-16.9c16-10.7,28.7-22.8,38.6-37c3.5-4.9,7.5-10.7,12.4-16c1.1-1.2,2.6-2.7,4.6-3.9c2.2-1.3,4.3-2,6.5-2
			s6.3,0.7,9.5,5.4c1.2,1.7,1.8,3.3,2.4,4.7c2,5.3,3,10.5,3.9,15.9c1.1,6.4,2,12.9,2.8,19.1c0.2,1.6,0.8,6.2,0.8,6.2
			c0.6,4.1,1.1,8.4,1.5,12.8l0.3,3.4c0.3,4,0.7,8,0.9,12.1c0.9,16.8,1.2,30.7,1.1,43.9c-0.1,9.5-0.5,19.3-1,29
			c-0.5,7.8-0.9,14.2-1.5,20.2c-0.9,9.7-2.1,19.8-3.5,30c-2.6,18.6-5.9,36.6-10,53.7c-4.6,19.7-9.5,35.6-15.3,50.3
			c-10.3,26.2-24.1,49.2-41,68.6c-27.1,31.1-61.1,51.7-100.9,61.3c-8.8,2.1-18.5,3.8-29.5,5.1c-10.7,1.3-21.8,2.1-33,2.5
			c-4.7,0.2-9.5,0.3-14.3,0.3c-6.7,0-13.7-0.2-20.8-0.5c-12.3-0.6-24.5-1.9-36.3-3.7c-25.1-3.9-47.2-9.8-67.7-18.3
			c-14.6-6-27.3-12.9-38.8-21.2c-5.8,7.5-11.2,15-15.7,21.4c-12.6,17.6-22.4,32.3-30.9,46.2c-1.7,2.7-3.3,5.6-4.8,8.4
			c-2,3.6-4.1,7.3-6.4,10.9c-3.4,5.3-7.1,10.9-12.2,15.7c-2.8,2.6-5.6,4.6-8.5,5.9C93.2,547.6,90.4,548.3,87.6,548.3z"/>
		<path class="st1" d="M87.6,544.3c-2.5,0-4.9-0.6-7.3-1.8c-3-1.5-5.7-3.8-8.3-7c-5.3-6.6-8.5-13.3-9.8-20.5
			c-1-5.6-0.9-11.5,0.4-18.1c1.7-8.6,4.9-17.3,10.1-27.3c6.2-12,14.2-24,25.2-37.9c13.8-17.4,29.6-34.7,49.8-54.3
			c4.9-4.8,9.9-9.5,14.8-14.1l4.4-4.2c7.4-6.9,16.3-13.2,27.3-19.3c14.3-7.9,30.8-14.3,50.5-19.6c12.8-3.4,26.6-6.4,44.8-9.4
			c13.7-2.3,24.2-4,34.2-5.4c11.1-1.6,22.4-3.4,33.5-5.4c15.8-2.9,36.6-7.2,56.8-14.8c11.7-4.4,21.5-9.2,29.9-14.8
			c20.7-13.6,35.9-31.7,45.2-53.8c2.4-5.7,4.5-11.5,6.2-17.2c-11,10-22.6,19.2-33.9,28.2c-2.3,1.8-4.6,3.7-6.9,5.5
			c-2.8,2.3-5.8,4.5-8.6,6.7c-2.1,1.6-4.1,3.1-6.1,4.7c-5.5,4.3-11.9,8-20,11.4c-14.5,6.1-30.1,10.5-46.3,13
			c-8,1.2-16.3,2.1-25.5,2.6c-11,0.6-22.1,0.7-32.8,0.8c-2.1,0-4.1,0-6.2,0c-6.7,0.1-13.9,0.1-21.1,0.4c-13.6,0.6-24.6,1.7-34.6,3.5
			c-15.9,2.9-29.9,7.6-42.8,14.5c-3.1,1.7-5.7,3.9-8.9,6.7c-5.8,5.2-11.6,10.7-17.1,16c-3.1,3-6.4,6.1-9.6,9.1
			c-7.7,7.1-14.6,13.5-22.4,19.5c-2.5,1.9-5.2,3.7-8.7,5.9c-2.1,1.3-4.2,2.1-6.4,2.5c-0.7,0.1-1.4,0.2-2,0.2c-3.1,0-5.7-1.4-7.6-3.9
			c-2.5-3.4-3-7.1-3.3-10c-0.4-5-0.2-10.1,0.6-15.2c3.1-20.6,8.8-41.6,17.3-64.4c3.9-10.3,9.6-20.3,18.1-31.4
			c13.6-17.8,29.9-33.3,48.6-46.2c17.5-12.1,37.1-20.9,58.4-26.3c12.3-3.1,24.4-5.5,36-7c9.5-1.3,19.2-2.4,29-3.3
			c7.7-0.7,15.2-1.3,23.5-2c10.1-0.8,18.4-1.6,26-2.4c21-2.2,37.7-4.9,52.7-8.7c12.4-3.1,24.6-7.5,37.5-13.3
			c10.1-4.6,21.7-10.1,32.4-17.2c16.5-10.9,29.4-23.4,39.7-38c3.4-4.8,7.4-10.4,12.1-15.6c1-1.1,2.2-2.3,3.8-3.2
			c1.5-0.9,3-1.4,4.5-1.4c1.7,0,4.1,0.6,6.3,3.6c0.9,1.3,1.5,2.6,1.9,3.8c1.8,4.9,2.8,10,3.7,15.2c1.1,6.3,1.9,12.7,2.8,18.9
			c0.2,1.6,0.8,6.2,0.8,6.2c0.6,4.1,1.1,8.3,1.5,12.6l0.3,3.5c0.3,3.9,0.7,7.9,0.9,12c0.9,16.7,1.2,30.6,1.1,43.7
			c-0.1,9.5-0.5,19.2-1,28.8c-0.5,7.8-0.9,14.2-1.5,20.1c-0.9,9.6-2,19.7-3.5,29.8c-2.6,18.4-5.9,36.4-9.9,53.3
			c-4.6,19.5-9.4,35.3-15.1,49.7c-10.1,25.7-23.7,48.4-40.3,67.4c-26.6,30.4-59.8,50.6-98.8,60.1c-8.7,2.1-18.2,3.7-29.1,5
			c-10.6,1.2-21.6,2.1-32.7,2.5c-4.6,0.2-9.4,0.3-14.1,0.3c-6.7,0-13.6-0.2-20.6-0.5c-12.1-0.6-24.2-1.8-35.9-3.6
			c-24.8-3.8-46.6-9.7-66.8-18c-15.6-6.4-29.1-14-41.1-23c-6.7,8.6-12.9,17.2-18.2,24.6c-12.6,17.7-22.5,32.4-31.1,46.4
			c-1.7,2.8-3.3,5.7-4.9,8.5c-2,3.5-4,7.2-6.3,10.7c-3.3,5.1-6.8,10.4-11.6,14.9c-2.4,2.3-4.9,4-7.4,5.1
			C92.1,543.8,89.8,544.3,87.6,544.3z"/>
		<path class="st0" d="M502.4,187.2c-15.8,15.6-33.3,29-50.4,42.7c-4.8,3.9-9.8,7.6-14.7,11.4c-5.8,4.6-12.3,8-19.1,10.8
			c-14.6,6.2-29.7,10.3-45.3,12.7c-8.3,1.3-16.7,2.1-25.1,2.6c-12.9,0.8-25.8,0.7-38.8,0.8c-7.1,0.1-14.1,0.1-21.2,0.4
			c-11.8,0.5-23.5,1.4-35.1,3.5c-15.4,2.8-30.1,7.5-44,14.9c-3.6,1.9-6.6,4.6-9.7,7.3c-9.2,8.1-17.9,16.8-26.8,25.2
			c-7.1,6.7-14.3,13.3-22.1,19.2c-2.7,2-5.5,3.9-8.4,5.6c-1.6,1-3.2,1.6-5.1,2c-2.3,0.4-4.2-0.2-5.7-2.2c-1.7-2.4-2.3-5.1-2.5-8
			c-0.4-4.8-0.2-9.6,0.6-14.3c3.3-21.8,9.3-43,17.1-63.6c4.1-11.1,10.4-21,17.5-30.3c13.5-17.6,29.4-32.7,47.7-45.3
			c17.5-12,36.6-20.5,57.1-25.7c11.7-3,23.6-5.3,35.6-6.9c9.6-1.3,19.2-2.4,28.9-3.2c7.8-0.7,15.7-1.4,23.5-2
			c8.7-0.7,17.4-1.5,26.1-2.4c17.9-1.9,35.8-4.4,53.3-8.8c13.2-3.3,25.8-7.9,38.2-13.5c11.3-5.2,22.6-10.6,33-17.5
			c15.9-10.6,29.7-23.3,40.7-39.1c3.7-5.2,7.4-10.4,11.8-15.1c0.9-0.9,1.8-1.8,2.9-2.5c2.2-1.4,3.9-1,5.4,1.1c0.6,0.9,1,1.9,1.4,2.9
			c1.8,4.7,2.7,9.6,3.5,14.5c1.4,7.8,2.3,15.7,3.4,23.5c0.6,4.6,1.3,9.2,1.7,13.8c0.4,5.1,0.9,10.2,1.2,15.3
			c0.8,14.5,1.3,28.9,1.1,43.4c-0.1,9.6-0.5,19.1-1,28.7c-0.4,6.7-0.8,13.3-1.4,19.9c-0.9,9.9-2.1,19.8-3.4,29.6
			c-2.5,17.8-5.7,35.4-9.8,52.9c-3.9,16.7-8.6,33.2-14.9,49.2c-9.5,24.3-22.4,46.6-39.6,66.2c-26,29.8-58.2,49.5-96.8,58.8
			c-9.4,2.3-19,3.8-28.6,4.9c-10.8,1.3-21.6,2.1-32.4,2.5c-11.5,0.4-22.9,0.3-34.3-0.3c-11.9-0.6-23.7-1.8-35.5-3.6
			c-22.6-3.5-44.7-9-65.9-17.8c-15-6.2-29.1-13.9-42-23.9c-1.3-1-1.3-1-2.4,0.4c-6.8,8.6-13.3,17.5-19.6,26.4
			c-10.9,15.2-21.4,30.7-31.2,46.7c-3.9,6.3-7.2,13-11.2,19.2c-3.2,5.1-6.6,10-11,14.2c-1.9,1.8-3.9,3.3-6.3,4.4
			c-3.5,1.6-7.1,1.5-10.5-0.2c-2.8-1.4-5.1-3.5-7-6c-4.5-5.5-7.7-11.7-9-18.7c-1-5.6-0.7-11.1,0.4-16.6c1.8-9.3,5.4-17.9,9.7-26.2
			c6.9-13.3,15.5-25.5,24.8-37.3c15.1-19.2,31.9-36.9,49.4-53.9c6.3-6.1,12.8-12.1,19.2-18.2c7.9-7.5,17-13.5,26.5-18.7
			c15.6-8.7,32.4-14.6,49.6-19.2c14.6-3.9,29.5-6.8,44.4-9.4c11.3-1.9,22.7-3.8,34.1-5.4c11.3-1.6,22.5-3.4,33.6-5.4
			c19.5-3.6,38.9-7.9,57.5-15c10.7-4,21.1-8.9,30.7-15.2c21.1-13.9,36.9-32.2,46.7-55.6c4-9.6,7.3-19.4,9.5-29.5
			C502.4,188.2,502.5,187.8,502.4,187.2z"/>
	</g>
</g>
<g class="st2">
	<path class="st0" d="M242.4,557.1l-1.3-19.9v-6.5c0-5.6,0-11.3,0.1-16.9c0.2-1.6,0.9-2.1,2.6-2.1h13.7c0.2,0,1.7,0.1,2,0.1
		c0.7,0.1,2.3,0.3,2.5,1.1v0.8c0,2.3-0.1,4.5-0.3,6.7c-0.1,1.3-0.4,2.7-1.9,2.7h-0.1l-8.2-1v1.8l0.4,7c0,0.2,0.1,0.2,0.2,0.2h0.1
		c0.1,0,0.7-0.1,0.9-0.1h5.6c0.3,0,0.6,0.4,0.6,0.6c0.1,0.3,0.4,1.1,0.4,1.1v7.2c0,0.3-0.4,0.8-0.8,0.8l-6.8,0.3v1.3l0.6,6.1
		c1.3-0.4,2.5-0.2,3.9-0.4c0.3-0.1,3.1-0.4,3.5-0.4h1.7c0.3,0,0.5,0.4,0.5,0.6l0.6,6.6v1.1c0,0.7,0.1,1.6-0.3,2.3
		c-0.3,0.6-1.1,0.8-1.8,1c-0.5,0.1-2,0.2-2.3,0.2c-0.4,0.1-4,0.1-4.4,0.1c-2.1,0.1-4.2,0.4-6.2,0.4h-1l-3.5-0.3
		C242.4,559.5,242.8,558.2,242.4,557.1z"/>
	<path class="st0" d="M275.4,522.7c1.8-0.8,3.8-1.1,5.6-1.1c5.7,0,10.9,3.5,10.9,9.6c0,1.3-0.2,2.5-0.4,3.9
		c-0.4,3.7-0.4,4.2-7.4,4.8c-1.6-0.4-2.8-0.1-2.8-1.4c0-0.9,0.3-2.5,0.3-3.8c0-1.8-0.7-3.1-3-3.1c-3.7,0-3.9,8.3-3.9,13.1
		c0,2.5,0.2,5.3,2.3,6.9c0.2,0.2,0.8,0.8,1.3,0.8c2.2,0,3.2-3.6,3.2-5.1c0-0.9-0.1-1.5-0.1-1.9c0-1.1,6.6-1.2,8.2-1.2
		c0.7,0,1.5,0.1,1.5,0.6v1.6c0,6.5-1.4,11.9-8,14.4c-1.5,0.6-3.1,1-4.9,1c-9.2,0-12.9-7.9-13.8-15.1
		C264.7,537.3,264.8,527.2,275.4,522.7z"/>
	<path class="st0" d="M294.1,541c0-10.2,6-20.1,17.5-20.1c13,0,15.6,8.9,15.6,16.3c0,9.4-3.2,23.6-16.6,23.6c-0.6,0-1.3-0.1-1.9-0.1
		h-0.1C299,559.7,294.1,550.3,294.1,541z M305.4,541.1c0,4.6,1.8,9.3,5.1,9.3c4.2,0,6.3-5.1,6.3-10c0-4.5-1.7-8.7-5.1-8.7
		C307.3,531.7,305.4,536.1,305.4,541.1z"/>
	<path class="st0" d="M331.5,512.9c0.3-0.7,1.1-1.1,1.8-1.1c2.5-0.6,4.9-0.8,7.5-0.8c5.6,0,10.7,0,13.8,5.1c1.1,1.9,1.8,4,1.8,6.2
		c0,5.2-1.5,11.3-5.1,15.3c3.6,1.6,5.1,5,5.1,8.7c0,8.6-4.9,14-13.7,14c-3.8,0-7.9-0.8-11.3-1.6L331.5,512.9z M341.8,534.7
		c3.5-1.5,4.2-6.7,4.2-8.7c0-2.4-0.6-4.6-3.7-4.3l-0.4,0.2V534.7z M342.5,553c0.2,0.1,0.5,0.1,0.7,0.1c3.5,0,3.7-4,3.7-6.2
		c0-1.7-0.6-2.7-2.3-2.7c-0.8,0-1.8,0-1.8,1.2L342.5,553z"/>
	<path class="st0" d="M358.4,541c0-10.2,6-20.1,17.5-20.1c13,0,15.6,8.9,15.6,16.3c0,9.4-3.2,23.6-16.6,23.6c-0.6,0-1.3-0.1-1.9-0.1
		H373C363.3,559.7,358.4,550.3,358.4,541z M369.7,541.1c0,4.6,1.8,9.3,5.1,9.3c4.2,0,6.3-5.1,6.3-10c0-4.5-1.7-8.7-5.1-8.7
		C371.6,531.7,369.7,536.1,369.7,541.1z"/>
	<path class="st0" d="M425.4,527l-9.3,14.2l10.5,15.1c0.4,0.6,0.6,1.1,0.7,1.6c0.2,1.2-1.8,1.1-2.5,1.2c-3,0.1-5.6,0.4-8.5,0.4h-1.2
		c-0.1-0.1-0.6-0.3-0.8-0.6l-4.9-7.5l-4.9,7.5c-0.2,0.3-0.6,0.5-0.8,0.6h-1.2c-2.8,0-5.4-0.2-8.5-0.4c-0.6-0.1-2.7,0-2.5-1.2
		c0.1-0.6,0.4-1.1,0.7-1.6l10.4-15.1l-9.2-14.2l-1.8-2.3c-0.1-0.1-0.2-0.4-0.2-0.4v-0.1c-0.1-0.6,0.4-0.9,0.7-1.2h7.5
		c0.4,0,2.2,0,2.7,0.1c0.6,0.1,1.4,0.3,1.8,0.8l5.4,7.7l5.4-7.7c0.4-0.6,1.2-0.8,1.8-0.8c0.5-0.1,2.3-0.1,2.7-0.1h7.5
		c0.4,0.3,0.8,0.6,0.7,1.2v0.1c0,0-0.1,0.3-0.2,0.4L425.4,527z"/>
</g>
</svg>
