<?xml version="1.0" encoding="utf-8"?>
<!-- Generator: Adobe Illustrator 20.0.0, SVG Export Plug-In . SVG Version: 6.00 Build 0)  -->
<svg version="1.1" id="Layer_1" xmlns="http://www.w3.org/2000/svg" xmlns:xlink="http://www.w3.org/1999/xlink" x="0px" y="0px"
	 viewBox="0 0 250 250" style="enable-background:new 0 0 250 250;" xml:space="preserve">
<style type="text/css">
	.st0{fill:#F78B0F;}
	.st1{fill:#FA8906;}
	.st2{fill:#F28C09;}
	.st3{fill:#F38C1C;}
	.st4{fill:#F89020;}
	.st5{fill:#E3930E;}
	.st6{fill:#E28F20;}
	.st7{fill:#EB943A;}
	.st8{fill:#EC871F;}
	.st9{fill:#D89934;}
	.st10{fill:#E5931C;}
	.st11{fill:#E4923C;}
	.st12{fill:#DC8F3B;}
	.st13{fill:#E68D2B;}
	.st14{fill:#EB8D3C;}
	.st15{fill:#E7953E;}
	.st16{fill:#F8920B;}
	.st17{fill:#DD922E;}
	.st18{fill:#F89739;}
	.st19{fill:#E2A046;}
	.st20{fill:#E09335;}
	.st21{fill:#E5952B;}
	.st22{fill:#D68F4E;}
	.st23{fill:#D59847;}
	.st24{fill:#E09C4A;}
	.st25{fill:#FEFEFE;}
	.st26{fill:#E79412;}
	.st27{fill:#EC9605;}
	.st28{fill:#F29222;}
	.st29{fill:#CB710A;}
	.st30{fill:#EAA149;}
	.st31{fill:#E4772C;}
	.st32{fill:#CE5804;}
	.st33{fill:#D07008;}
	.st34{fill:#BDA948;}
	.st35{fill:#D5782D;}
	.st36{fill:#F98918;}
	.st37{fill:#F69914;}
	.st38{fill:#E5911E;}
	.st39{fill:#E59B28;}
	.st40{fill:#FB8006;}
	.st41{fill:#F87E1D;}
	.st42{fill:#F77F22;}
	.st43{fill:#C15B02;}
	.st44{fill:#DD6E07;}
	.st45{fill:#F48A0F;}
	.st46{fill:#F59404;}
	.st47{fill:#D26108;}
	.st48{fill:#DA6D0C;}
	.st49{fill:#C6510F;}
	.st50{fill:#E0A848;}
	.st51{fill:#F4883F;}
	.st52{fill:#FCF6E9;}
	.st53{fill:#DC9025;}
	.st54{fill:#FCF1E4;}
	.st55{fill:#F38747;}
	.st56{fill:#F79E16;}
	.st57{fill:#C59E34;}
	.st58{fill:#C65101;}
</style>
<g>
	<g>
		<path class="st0" d="M126.3,93.8c2.4,0.4,4.7,1,6.7,2.3c4.6,7.6,13.8,7.5,20.4,11.7c4.9,3.2,10.1,0.6,12.4-5
			c1.7-4.2,5.9-6.2,7.9-10.1c5-7,11.3-8.6,21.3-5.4c1.4,0.5,2.9,0.8,4.2,1.6c1.9,1.5,3.8,3.1,5.8,4.6c6,4.7,6,4.7,0.8,10.4
			c-1.3,1.2-2.9,1.4-4.5,1.4c-2.1-0.1-4.2,0.1-5.9-1.5c-1.5-6.9-2.6-7.6-9.4-6.6c-3.6-1.2-5.4,1.5-6.5,3.8c-1.2,2.6,1.2,4.2,3.2,5.4
			c1.9,1.1,3.9,2.1,4.8,4.2c0.9,2.1,1.8,4.7-2.3,4.6c-0.4-0.3-0.6-0.7-0.8-1.2c-0.6-1.5-1-3.4-3.2-3.2c-2.3,0.2-2.6,2.2-2.9,4
			c-0.2,0.9-0.5,1.8-0.8,2.7c-0.5,1.4-1.3,2.5-2.7,3.2c-0.8,0.4-1.7,0.7-2.6,1c-4.5,1.3-3.6,4.4-2.6,7.6c-2.2,2.7-5.6,3.4-8.7,3.9
			c-2.3,0.4-4.3,1.1-6.4,2c-3.3-3-6.3-6.5-10.8-7.9c-1.2-0.2-2-1.1-2.6-2.1c-1.3-4.6-5.4-3.7-8.7-4.5c-3.1-0.5-6.1-1.3-9-2.5
			c-5.9-2.4-12-3.1-18.4-2.9c-3.8,0.1-7.6,0.6-11.3-0.5c-3.7-2.6-3.1-6.4-2.1-9.9c1-3.5,4.2-3.2,7-3.3c2.3-0.1,4.5,0,7.9,0
			c-4.2-0.4-7.3-0.5-10.4-0.9c-4.2-0.5-8.7,3-11,7.8c-1.2,2.5-1.3,5.6-4.3,7c-3.6,0.2-3.7-2-3-4.5c0.4-1.6,1.5-2.9,2.2-4.4
			c2.4-5.3,2.4-5.3-2.8-7.5c-0.4-2.1,0.9-3.5,2.3-4.8c2.3-1.6,5.2-2,7.4-3.9c1.4-1.2,3.5-1.3,5.3-0.8c10.9,3.1,22.3,2.5,33.4,4
			C125.7,93.6,126,93.7,126.3,93.8z"/>
		<path class="st1" d="M77,99c1.5,0,3-0.1,4.4,0.1c2.2,0.4,3.5,2.1,1.8,3.8c-2.3,2.3-2,5.8-4.4,8.1c-1.3,1.3-1.6,3.4,1.2,4
			c2.3,5.4,0.2,10.5-2.1,15c-4.2,8.3-1,14.2,8.5,14.7c0.7,0,1.3,0.1,2,0.2c3.3,0.7,3.7,3.3,4.2,5.9c0.5,3,2,4.7,5.4,4
			c2.6-0.6,5.2,0.4,7.8,0.8c3.7,0.5,3.8,3.6,4.4,6.3c1.2,4.3,5,5.7,8.3,7.2c4,1.9,5.5,4.5,4.2,8.7c-2.9,5-8.6,5.9-13.1,8.6
			c-1.4,0.8-2.9-0.2-3.7-1.6c-1.5-2.4-2.8-5-3.5-7.7c-0.9-3.9-3.1-5.2-6.9-4.2c-1.2,0.2-2.5,0.3-3.7,0.4c-5.9,1.6-9.9-2.5-13.3-5.7
			c-4-3.9-8.9-4.6-13.5-6.3c-1-1-1.1-2.3-1.6-3.5c-1.8-4.9-3.4-10-9.7-11c-0.8-0.1-1.3-0.9-1.7-1.7c-0.8-1.1-1.3-2.3-1.3-3.7
			c-1.4-12.2-1.3-14.7,0.6-18.4c2.4,0.9,2.5,3.3,3.3,5.2c1.1,2.7,1.7,5.8,4.3,7.7c2.1,1.6,4.3,1.8,6.4,0.2c2.1-1.5,1.5-3.4,0.6-5.3
			c-0.3-0.6,0,0.2-0.2-0.4c-3.4-8-3.4-8,2.3-13.6c-2.5-1.8-6.7-2.4-6.1-6.8c0.8-6,5.9-8.2,9.9-11.2C73.3,97.6,75.4,97.5,77,99z"/>
		<path class="st2" d="M100.9,206.6c-0.1-0.2-0.1-0.4,0.1-0.6c1.6-3.2,4.5-5.6,6.2-8.7c1.6-1.3,2.3-3.2,3.5-4.8
			c1.1-1.5,2.7-3.6,4.3-2.8c4.2,2.1,5.9-1,8.1-3.2c1-0.4,1.9-0.4,2.9-0.1c1.1,0.5,2.2,1.1,2.3,2.6c-0.7,1.6-4.8,1.8-2.3,4.8
			c2.1,2.5,5.4,1.9,8.3-1.3c2.4-1,3.6-2.7,3.5-5.3c0-2.1,0.2-4.3,1.7-6c5.1-0.7,5.9-4.4,6-8.6c1.5-0.7,3-0.7,4.5,0.1
			c3.4,3.2-0.3,5.8-0.8,8.6c-4,7.3-8,14.6-12,21.9c-1,0.9-2.1,1.5-2.7,2.8c-2,4.5-7.6,6.1-11.6,3.3c-2.2-1.5-3.6-4.6-7.1-3.5
			c-3.4,1.1-2.5,4.7-4.1,6.9c-3.7-0.7-7.5-1.1-11.2-2.2C100.2,209.1,100.6,207.9,100.9,206.6z"/>
		<path class="st3" d="M63,110c-0.4,3.9,2.8,4,5.1,4.8c1.1,0.4,2.4,0.6,2.5,2c0.1,1.5-1.1,2.1-2.2,2.3c-5.1,1.1-4.9,3.9-2.6,7.6
			c0.5,0.8,0.5,2,1.1,2.8c2.2,3.1,3.2,6-0.9,8.3c-3.8,2.2-8.3,0.5-10.3-3.6c-0.8-1.6-1.3-3.4-2.1-5c-0.8-1.6-0.2-3.7-2.7-5.8
			c0,6.4,0,12.2,0,17.9c-1.6-7.1-3.2-14.3,0.1-21.4c2-2.9,4.9-2.1,7.6-1.8c1.6,0.2,3.6,1.1,4.6-0.4c1.2-1.8-1.7-2.5-1.9-4.1
			C61.1,112.1,60.5,110.3,63,110z"/>
		<path class="st4" d="M185,115c2.8-0.7,2.3-2.4,1.2-4.1c-0.9-1.4-2.2-2.3-3.8-3c-6-2.9-6.5-6.5-1.3-10.5c1.2-0.9,2.8-6.6,4.9-0.4
			c0.3,0.4,0.3,0.9,0.4,1.4c0.9,5.5,1.9,6,8.5,4.6c1.9,1.2,4,1,6,1c0.5,1.1,0,2.1-0.7,2.7c-3.5,3.1-4.8,7.4-6.2,11.6
			c0,0.3-0.2,0.5-0.4,0.7c-5.2,1-8.4,4-9.8,9.2c-0.3,1.3-1.4,2.3-2.9,2.4c-0.5-0.1-0.9-0.2-1.3-0.6c-0.4-1.1,0-2.3,0.1-3.4
			c0.2-1.4,1.8-2.8,0.4-4.1c-1.6-1.5-2.9,0.7-4.5,0.8c-1.7-0.5-2.4-1.6-1.8-3.3c1.3-0.6,2-1.6,2-3c2.6,0.5,5.1,0.6,7.1-1.7
			C183.7,114.9,184.3,114.6,185,115z"/>
		<path class="st5" d="M174,94c-2.5,4.8-7,8.1-9.1,13.3c-1.4,3.5-8.7,4.1-12.8,1.7c-4.4-2.5-8.5-5.4-13.9-5.7
			c-3.7-0.2-3.2-4.9-5.1-7.2c3.2,0.9,6.2,2.2,9,3.9c8,6.4,17.8,5.5,24.1-2.2c1.3-1.6,2.5-3.1,4.2-4.2C171.6,93.2,172.9,92.8,174,94z
			"/>
		<path class="st6" d="M100.9,206.6c0.1,1.5,0.1,2.9,0.2,4.4c0.9,1,0.7,2,0.5,3.2c-1,6.9,0.3,8.4,7.2,8.5c0.7,0,1.3,0,1.9,0
			c2.7,0.1,5.1,1.1,6.9,3.2c1.2,1.3,2.6,2.2,4.3,1.3c1.6-0.7,1.4-2.4,1.7-3.8c0.3-1.9-0.7-3.9,0.4-5.8c1.4-0.8,2.8-1.6,4.4-0.4
			c0.8,1.7,0.3,3.2-0.4,4.7c-4.1,11.6-4.1,11.6-16.5,7.3c-0.2-0.1-0.3-0.2-0.4-0.3c-1.5-3.3-4.8-1.9-7.2-2.9c-2.3,0.3-4-1.3-6.1-1.6
			c-2.7-0.4-3-2-2.3-4.3C96.8,215.5,98,210.7,100.9,206.6z"/>
		<path class="st7" d="M126.3,93.8c-10,1.1-19.9-1.2-29.8-0.9C95,93,94,92.4,93.1,91.3c-1.4-1.8-3.7-1.9-4.8-0.6
			c-2.5,3-6.1,3.1-9.2,4.4c-2,1.9-3.8,4.3-6.9,2c11-8.1,23.2-10,36.4-6.9C114.4,91.5,120.4,92.6,126.3,93.8z"/>
		<path class="st8" d="M111,213c0.6-8.2,1.8-9.6,7.6-9c1.2,0.1,2.6,0.2,2.9,1.4c1.2,4.8,4.9,3.4,8,3.6c2.1,0.1,3.6-0.3,3.6-2.9
			c0-2.7,1.8-3.3,4-3.1c-1.7,3.3-3.4,6.6-5,9.9c-1.1,1.2-1.8,3.1-4,2.4c-0.6-0.3-1-0.8-1.5-1.2c-5.7-4.6-7.2-4.6-12.1,0.5
			C112.9,214.9,111.2,215.5,111,213z"/>
		<path class="st9" d="M65.1,160.8c3.1,0.4,6.2,0.8,9.2,1.2c1,0.1,2,0.4,2.1,1.7c0.2,2.5,2,3,4.1,3.4c0.7,0.1,1.9,0.6,2.1,1.1
			c1.7,5,5.9,3.5,9.4,3.8c1.8,0.9,2.4,2.4,1.5,4.1c-1,2-2.9,0.6-3.9,0.2c-3.9-1.6-8-3.1-11.3-5.8c-2-1.6-4-2.8-6.5-3.5
			c-3.3-1.1-5.1-4.1-7.7-6.1C64.4,160.6,64.8,160.5,65.1,160.8z"/>
		<path class="st10" d="M167.2,154.3c-2.3,4.6-5.5,8.5-8.5,12.7c-1.2,0.9-2.3,2.4-4.1,1c-1.4-2.3-0.6-4.5,0.3-6.7
			c0.5-1.1,0.9-2.3,1.5-3.3c0.3-0.4,0.6-0.9,1.1-0.9c5.1-0.6,6.7-3.9,6.4-8.6c0.3-1.4,1-2.5,2-3.4c2.5-1.4,4.9-2,7.3,0.1
			c-0.5,0.6-1,1.2-1.5,1.8C169.5,148.9,167.6,151.1,167.2,154.3z"/>
		<path class="st11" d="M174,94c-1.3,0-2.7,0-4,0c-0.3-0.2-0.4-0.4-0.3-0.5c0.1-0.2,0.2-0.3,0.3-0.3c5-2.5,8.2-7.4,13.4-9.9
			c3-1.4,5.5-1.9,8.1,0.4c2.3,2.1,5.6,2.7,7.7,5.2c-5.2-0.4-10.6-0.4-15.7-1.4c-4-0.8-6,0.6-7.3,3.9C175.6,92.5,175.2,93.5,174,94z"
			/>
		<path class="st12" d="M180,130c2.7,0,3-2.2,3.5-4c1.4-5.4,4.5-8.1,10.2-7c-5.9,7.3-11.8,14.6-17.7,22c-1.3-1.3-1.2-2.9-1.1-4.5
			c0-0.5,0.1-1,0.3-1.5C175.9,132.5,176.3,129.6,180,130z"/>
		<path class="st13" d="M65.1,160.8c-0.3,0.1-0.6,0.1-1,0.1c-5.2-4.4-10.2-9-12-15.9c2.2,1.9,5.9-0.4,7.6,2.6
			C62,151.8,65.8,155.4,65.1,160.8z"/>
		<path class="st14" d="M62,114c1.5,1,4.5,1.3,3.6,3.9c-0.9,2.5-3.7,2.5-6,1.8c-3-0.9-5.8-1-8.7,0.3c1.6-5.7,6.3-8.9,10-12.9
			C62.6,109.1,58.7,112.1,62,114z"/>
		<path class="st15" d="M71.8,167.1c6,0.2,9.5,5.6,14.8,7.3c0.7,0.2,1.3,1.1,2.1,1.3c1.2,0.3,3,0.9,3.7,0.4c1.5-1.1,0.2-2.6-0.4-4
			c1.3,0,2.7-0.1,4-0.1c4.6,2.6,7.7,6.2,8.4,11.6c-0.2,0.2-0.3,0.3-0.5,0.5c-2.2-2.2-4.3-4.7-7.6-5.2
			C86.9,177.4,79.2,172.7,71.8,167.1z"/>
		<path class="st16" d="M176,136c0,1.6,0,3.3,0,4.9c-0.6,1.6-1.3,3.1-2.7,4.2c-2.5-0.1-5-0.5-7.3,0.9c-1.3-2.2-0.6-4.6-0.8-6.9
			C167.8,134.3,170.5,133.5,176,136z"/>
		<path class="st17" d="M62,114c-6.2-1.5-0.6-4.7-1-7c2-5.3,7.2-7,11.1-10c2.8,1,4.5-1.8,6.9-2c0.3,1.8-0.9,2.9-2.1,4
			c-2.9,0.7-6.3-0.6-7.8,4.2c-0.6,2-5.8,2.8-6.2,6.8C61.5,111.1,62.1,112.6,62,114z"/>
		<path class="st18" d="M108,198c-1.9,3.1-3.9,6-7,8c0.6-5.3,4-9.9,3.4-15.6c-0.2-2-0.2-4.2-0.5-6.2c0,0,0.3-0.2,0.3-0.2
			C108.9,188,110.4,193.4,108,198z"/>
		<path class="st19" d="M170,93.2c0,0.3,0,0.5,0,0.8c-1.4,2-3,3.9-4.3,6c-4.1,6.8-19.2,6.9-23.7,0c2.3,0.9,4.5,2,6.9,2.6
			c5.9,1.5,11.1,0.4,15.3-4.4C165.9,96.3,168.1,94.9,170,93.2z"/>
		<path class="st20" d="M194.1,118.3c-1.4-6.5,3.4-10.1,6.9-14.3c1.6,0,3.1-0.1,4.7-0.1C202,108.9,198.4,113.9,194.1,118.3z"/>
		<path class="st21" d="M155,168c1.2-0.3,2.5-0.7,3.7-1c-3.2,4.7-5.9,9.8-9.7,14.1c-1-2.9,2.4-5.2,0.9-8.1
			C151.4,171.1,152.3,168.6,155,168z"/>
		<path class="st22" d="M128.1,215c1.7,0.1,2.5-1.5,4-2c-0.8,3.2-1.6,6.5-4.1,9c0-1.6,0-3.3,0-4.9
			C127.4,216.3,127.5,215.6,128.1,215z"/>
		<path class="st23" d="M103.8,226.1c1.1-0.1,2.4,0.1,3.4-0.4c3.9-1.8,4.3,0.2,3.9,3.3C108.3,228.8,106.1,227.3,103.8,226.1z"/>
		<path class="st24" d="M167.2,154.3c-0.6-3.8,0.7-6.5,4.6-7.4C171,149.8,168.5,151.7,167.2,154.3z"/>
		<path class="st25" d="M141.9,125.1c0.6,0.7,1.3,1.5,1.9,2.2c0.7,0.5,0.7,1.1,0.4,1.8c-0.4,0.3-0.8,0.5-1.2,0.7
			c-4.1,2.2-5.5,6.1-6.2,10.4c0,0.7,0,1.4-0.2,2.1c-1,2.2-1.9,4.4-4.6,5.2c-4.2,0.5-6.7,3.5-7.7,9.2c-0.3,1.6,0,3.3-0.8,4.8
			c-3.5,3.2-6.7,1.5-9.8-0.7c-3.7-2.7-6.9-6.1-11.1-8.1c-5.6-3.6-10.5-8.1-15.5-12.4c-5.9-5.1-7.8-11.7-5.9-19.3
			c1.6-2.8,4.6-3.5,7.1-5c12.3-3.1,24.3-1.6,36.1,2.4c1.7,0.6,3.5,1.1,5.2,1.5C134,121.3,138.4,122.1,141.9,125.1z"/>
		<path class="st26" d="M88.2,117.3c-2,1.3-3.9,2.5-5.9,3.8c-2.6,2.8-0.7,6.2-1.4,9.3c-2.1,5.4-0.9,9.6,4.4,12.5
			c1.1,0.6,3,1,2.7,3.1c-6.8,1.9-10.1-3.6-14.1-7.1c-1.3-1.1-1-4.9,0.3-6.2c5.3-5,4.7-11.6,5.7-17.7c2.7-0.9,1.9-3.6,2.9-5.5
			c4.3-8.6,7.1-10.3,16.7-9.6c2.8,0.2,5.7-0.5,8.4,0.6c0.6,0.2,1.1,0.7,2,1.3c-3.3,2-6.7,1-9.8,1.1c-8.8,0.2-10.2,2.2-7.1,11
			C91.9,115.8,89.5,115.7,88.2,117.3z"/>
		<path class="st27" d="M143.8,128.7c0-0.5,0-0.9,0-1.4c0.2-0.5,0.3-1.3,0.5-1.3c1.9,0,9.2,6.8,9.7,9c-2.1,2.2-2.5,4.9-2.6,7.8
			c-3.8,6.6-8.1,6.9-13.8,1.3c-0.2-0.6-0.4-1.4,0.1-1.9C141.3,138.4,142.3,133.4,143.8,128.7z"/>
		<path class="st28" d="M151,142c-1.6-3.5-0.7-5.9,3-7c3.1-4.8,9.1-1.8,12.9-4.9c0.6-0.5,1.4-0.7,2.1-1c0.4-0.3,0.8-0.4,1.2-0.3
			c2.6,1.5,3.5,4.5,5.7,6.2c0,0.3,0,0.7,0,1c-3.6,0.6-8.5-2.1-10,4c-0.8,0.8-1.7,0.8-2.7,0.5c-0.9-0.5-1.1-1.6-1.9-2.2
			c-1.8-1.4-4.1-2.5-5.5,0c-1,1.9-2.4,4.6,0.8,6.5c1,0.5,3,0.3,2.1,2.5C152.7,149.3,150,147.5,151,142z"/>
		<path class="st29" d="M195,103c-2.1,0.8-3.4,4.7-6.6,1.9c-2.4-2.1-4.7-4.3-2.4-7.9c2.6-2.2,5.1-3,7.7,0.1
			C195.2,98.9,197.9,100.3,195,103z"/>
		<path class="st30" d="M88.2,117.3c1.1-1.8,2.8-2.9,4.9-3.4c13.8-1.1,27.1,0.8,40,5.9c-0.7,1.3-2,0.7-3,0.9
			c-9-1.9-17.6-5.3-26.9-5.9C97.9,114.5,93,115.4,88.2,117.3z"/>
		<path class="st31" d="M176,135c-4.2,0.2-3.8-4.2-6-6c0.6-2.7,1.8-5.2,2-8c0.4-0.8,1.2-1,2-1c0.7,1,1.3,2,2,3c2.5,1.6,1.9,5.1,4,7
			c0,0,0,0.1,0,0.1C177.6,130.9,177,133.1,176,135z"/>
		<path class="st32" d="M185,115c-0.4,0.3-0.7,0.7-1.1,1c-2.5,1-5,1.6-7-1c-0.4-3.3,1.1-5.7,4.4-5.7
			C184.8,109.3,185.1,112.2,185,115z"/>
		<path class="st33" d="M172,121c2.3,3.4,0.1,5.7-2,8c0,0-0.5,0-0.5,0s-0.5,0-0.5,0C165.5,124.9,166.5,122.1,172,121z"/>
		<path class="st34" d="M130,120.7c0.8-0.9,2-0.6,3-0.9c4,0,8.2-0.5,8.8,5.2C137.7,124.2,133.9,122.5,130,120.7z"/>
		<path class="st35" d="M177,115c2.3,0.5,4.6,1.3,7,1c-2.4,2-4.7,4.9-7.9,1C176.3,116.3,176.7,115.7,177,115z"/>
		<path class="st36" d="M126,187c-1,0-2,0-3,0c-2-2.8-1.7-5.9-1-9c1.9-7.7-5.6-7.4-9.1-10.4c-1.9-1.6-4.3-2.6-3.9-5.6
			c1.2-1.2,2.7-1.4,4.1-0.8c4.4,1.9,8.8,1.4,13.3,0.2c2.7,2.6,0.2,6,1.3,8.8c-0.4,2.6-0.8,4.6,3.2,2.6c3.9-2.1,7.1-4.5,9-8.7
			c1.2-2.6,2.9-4.8,6.3-4.2c0.4,4.9-3.1,7.7-5.7,11.1c-2.2,1.5-3.2,3.8-4.1,6.2C133.8,181.4,130.4,184.8,126,187z"/>
		<path class="st37" d="M122,178c1.7,2.9,0.8,6,1,9c-1.8,2.5-1.9,8.1-7.4,3.6c-1.5-1.3-2.7,1.2-3.8,2.3c-1.5,1.5-1.5,4.1-3.7,5.1
			c1.5-5.5-2-9.5-3.8-14.1c-1.6-4.8-5.5-7.9-8.2-11.9c4.2-1.7,6.6-1,7.4,4.1c0.5,3.1,1.8,6.8,4.1,8.8c3,2.6,4.8-2.5,7.9-2.8
			C118,181.9,119.8,179.5,122,178z"/>
		<path class="st38" d="M88,146c-2.7-1.9-5.5-3.6-8-5.7c-3.7-3-0.8-6.2,0-9.3c3,6,9.2,9.3,12.7,15c0.4,3.9,2.7,5.1,6.3,4.8
			c0.9,0.2,1.9,0.3,2.8,0.7c1.5,1.8,4.8,2.2,4.3,5.5c-3.6-0.3-7-1.8-10.7-0.3c-2.3,0.9-2.6-1.4-3.5-3C90.5,151.1,92.8,146.7,88,146z
			"/>
		<path class="st39" d="M106,157c-1.4-1.6-2.7-3.2-4.1-4.9c0.3-0.6,0.6-0.7,1.1-0.2c4.2,1.2,6.8,4.7,10.1,7.1c2.9,2.1,5.9,4.5,9.8,2
			c1.4-3.1,2.5-6.4,5.8-8.2c0.4,0.3,0.7,0.6,0.9,1.1c-0.2,3,0.4,6.2-2.7,8.2c-6,2-12,0.7-18,0C107.4,160.7,109.9,157,106,157z"/>
		<path class="st40" d="M111,213c1,1.5,2.6,0.9,4,1c2.6,1.6,6.5,0.5,8.2,4c-3.7,2.7-9.3,1.5-12.2,5.9c-1,0-2,0-3,0
			c-7.7,0-10.1-3.7-7.2-11c0.2-0.6,0.1-1.3,0.2-2C104.9,208.8,108.3,209.1,111,213z"/>
		<path class="st41" d="M140,171c1.5-4,5.3-6.6,6-11c-1.5-2.2-0.2-3.4,1.6-4.4c0.7-0.3,1.5-0.3,2.2,0c0.5,5.8,0.5,5.8,6.3,5.5
			c-0.6,2.3-1.3,4.5-1,6.9c-1.2,2.1-2.3,4.3-5,5c-1.7,0-3.3,0-5,0C142.4,174.6,141,173.4,140,171z"/>
		<path class="st42" d="M126,187c2.3-4.3,7.1-6.2,10-10c2.8-0.2,4.1,1.2,4,4c-0.6,2.4-1.3,4.7-1,7.2c0.4,3.6-1.2,5.2-4.8,4.8
			c-2-1.4-4.6-2-6.2-4.1C127.3,188.3,126.7,187.6,126,187z"/>
		<path class="st43" d="M128,188.9c2.3,1,5.5,0.6,6.2,4.1c-0.2,2.1-0.6,4.3-3.3,3.8c-2.8-0.5-6.5-0.6-7.5-3.7
			C122.5,190,125.3,189.1,128,188.9z"/>
		<path class="st44" d="M140,181c-1-1.7-2.3-3-4-4c0.3-2.7,0.5-5.5,4-6c1.6,0.9,2.9,2.4,5,2C148,179,146.8,180.9,140,181z"/>
		<path class="st45" d="M180,130c-5.1-0.2-2.3-4.9-4-7c1.1-1.6,2.2-3.8,4.6-2.5c2.4,1.2,2.1,3.2,0.7,5.4
			C180.5,127,180.4,128.6,180,130z"/>
		<path class="st46" d="M111,224c1.5-7,7.7-4.5,12-6c0.3-0.3,0.7-0.3,1,0c2,2.9,0.5,6.1,0.6,9.1c0,1.4-1.3,1.9-2.5,1.8
			c-1.8-0.1-4.1,1.1-5.1-1.6C115.9,224.6,113.6,224.1,111,224z"/>
		<path class="st47" d="M124,218c-0.3,0-0.7,0-1,0c-2.4-2-6.7,0.1-8-4c1.2-4.7,3.2-5.9,7.3-3.8c2.2,1.2,5.4,1.4,5.8,4.8
			c0,0.7-0.1,1.4-0.1,2.1C126.6,217.4,125.3,217.7,124,218z"/>
		<path class="st16" d="M150,156c-0.7,0-1.3,0-2,0c-0.5-1.8,0.8-2.6,2.1-3.6c-3.4-0.3-5.2,1.8-6.7,4.2c-1.9,3-4.2,5.4-7.6,6.8
			c-2.4,0.9-3.9,3-5.2,5.1c-0.8,1.3-1.4,3.1-3.6,2.6c-1.9-3-0.8-6,0-9c0.7-2.9,1.4-5.9,2.2-8.8c0.5-2.3,2.2-2.1,3.9-2
			c4.8,0.2,5.3-0.4,4.4-5.3c-0.1-0.7,0-1.4,0.6-1.9c0.4,0.2,0.9,0.5,1.3,0.7c7,3.3,7,3.3,11.6-2.7c0.6,5,2.6,6,8,4
			c0.4-0.3,0.8-0.4,1.2-0.3c1.7,1,3.4,1.9,4.8,3.3c0,7.3-0.6,8-8,9C154.4,158.2,152.1,157.4,150,156z"/>
		<path class="st48" d="M165,149c-2.5,0.3-4-1-5.1-3.1c-1.4-1.3-2.2-2.9-0.9-4.7c1-1.3,2.1-2.5,4-1.3c1,0,2,0,3,0c1.7,2,0.3,4,0,6
			C165.7,147,165.3,148,165,149z"/>
		<path class="st49" d="M150,156c2.6-0.3,5,0.2,7,2c0,1.1,0.1,2.3-1,3c-2.2,1.4-4.4,3.2-7,0.5C146.8,159.2,149.1,157.8,150,156z"/>
		<path class="st50" d="M103.1,151.9c-0.4,0.1-0.7,0.1-1.1,0.2c-1-0.1-2-0.1-3-0.2c-2.2-2.1-5.3-3.2-7-5.9
			c-2.6-4.3-7.7-6.1-10.2-10.7c-0.8-1.4-1.9-2.6-1.7-4.4c1-3.2-2.1-7.4,2.3-9.9c-1.9,8.6,1.5,14.9,8.1,20.5
			C94.6,145.1,99.2,148,103.1,151.9z"/>
		<path class="st51" d="M138,146c2.2,1.2,2.7,2.9,0.8,4.7c-1.3,1.1-1.6,4.6-4.7,2.1c-1.6-1.3-3.4-0.8-4.9,0.5c0,0-0.2-0.3-0.2-0.3
			c-1.1-3,0.9-4.5,2.9-6c2.2-1.1,2.5-3.6,3.9-5.3C137.5,142.7,136.7,144.8,138,146z"/>
		<path class="st52" d="M131.9,147c-1,2-2,4-2.9,6c-1.8,2.8-3.4,5.8-6,8c-0.8-4.6,1.2-8.6,3.3-12.4
			C127.5,146.3,129.2,144.3,131.9,147z"/>
		<path class="st53" d="M138,146c-2-0.8-2-2.6-2.1-4.3c0.1-0.5,0.3-1.1,0.4-1.6c1.1-4.4,3.6-7.9,6.7-11.1c0.3-0.2,0.5-0.3,0.8-0.3
			c0.6,5.2-0.4,9.8-4.9,13.1c-0.5,0.4-0.6,1.4-0.9,2.2C138,144.6,138,145.3,138,146z"/>
		<path class="st54" d="M143,129c-1.6,4.1-4.2,7.6-6.7,11.1C135.2,136.1,139.5,129.2,143,129z"/>
		<path class="st55" d="M163,140c-3.9,0.5-4,2.9-3.1,5.9c-0.3,0-0.6,0-1,0.1c-2-0.3-5.4,0.9-5.4-1.8c0-2.8-0.8-6.6,2.5-8.5
			c2.3-1.3,4.4,0.2,6.4,1.4C163.7,137.7,163.6,138.9,163,140z"/>
		<path class="st56" d="M127,171c3.8-8,13.7-9.9,17.6-17.9c1.4-2.9,4.7-2.2,8-1.8c-1.3,2.1-3.9,2.5-4.6,4.7c-1.1,1.1-2.4,2.1-2,4
			c-2.5,1.6-4.7,3.2-5.8,6.3c-2,5.5-7.7,6.8-12.2,9.5c-0.8,0.4-1.8,0.1-2.2-0.7C125,173.5,126.6,172.4,127,171z"/>
		<path class="st57" d="M92,146c2.6,1.6,6.1,2.3,7,5.9C94.7,152.3,91.3,151.6,92,146z"/>
		<path class="st58" d="M144.7,176.7c-0.1,1.5-1,2.1-2.2,2.2c-2.3,0.2-3.8-1-4.2-3.1c-0.3-1.6,1.1-1.7,2.3-1.8
			C142.6,173.9,143.9,174.9,144.7,176.7z"/>
	</g>
</g>
</svg>
