<?xml version="1.0" encoding="utf-8"?>
<!-- Generator: Adobe Illustrator 20.0.0, SVG Export Plug-In . SVG Version: 6.00 Build 0)  -->
<svg version="1.1" id="Layer_1" xmlns="http://www.w3.org/2000/svg" xmlns:xlink="http://www.w3.org/1999/xlink" x="0px" y="0px"
	 viewBox="0 0 250 250" style="enable-background:new 0 0 250 250;" xml:space="preserve">
<style type="text/css">
	.st0{fill:#CB9663;}
	.st1{fill:#B68551;}
	.st2{fill:#976431;}
	.st3{fill:#77491D;}
	.st4{fill:#B07F52;}
	.st5{fill:#CBAA86;}
	.st6{fill:#FFFFFD;}
	.st7{fill:#FDFDFC;}
	.st8{fill:#7D4B1E;}
	.st9{fill:#F9F6F3;}
</style>
<g>
	<g>
		<path class="st0" d="M88,88.1c0.1-0.9,0.2-1.8,1.2-2.1c4-1.1,5.5-4.4,7-7.8c5.7-6.6,10.6-13.6,13.5-22c3.1-9.1,5-9.4,15-5.7
			c2.4,1.7,5.1,1.9,7.8,1.6c1.8-0.2,0.4-1.1,0-1.7c6.3-3,7.9-9.4,10.3-15.1c3.3-7.6,7.3-14.6,13.3-20.4c4.7-4.6,10.1-7.4,17-4.8
			c1.6,0.6,3.2,0.6,4.9-0.4c11-6.5,25.8,1.7,25.6,14.5c-0.1,12.3-5,23.5-10.4,34.4c-4.1,1.2-8,1.3-11.6-1.5c0-0.6,0.1-1.3,0.7-1.4
			c7.5-0.9,9.5-6.6,11.3-12.7c1.6-5.6,4.1-11,3.9-17.2c-0.3-6.1-4-9.6-8.6-12.6c-1.3-0.9-2.9-1.1-4.4-0.2c-1.4,0.9-1.4,2.2-0.8,3.5
			c4.1,10.2,0.9,19.5-3.4,28.5c-1.6,3.3-2.2,6.4-0.5,9.7c-1.6,2-5.1,2.2-5.2,5.6c-1.3,3.7,1.3,4.2,3.8,4.6
			c9.3,1.6,18.5,3.9,27.9,5.6c6.2,1.1,7.8,3.7,5,9c-3.2,6.2-4.1,13-6.1,19.5c-7.7,24.3-19.4,47.1-27.1,71.3
			c-4.8,15.4-7.8,31.3-9.5,47.5c-0.3,3.2-0.6,6.4-1.9,9.4c-1.8,4.1-1.1,7.3,2.9,9.6c-7.7,6.1-16.2,2.3-24.2,1.5
			C108,234.7,74,218.7,38.9,206.7c-4.3-1.5-8.5-3.4-12.9-4.7c-3.5-1-4.5-2.6-3.2-6.1c4.4-11.7,7.9-23.8,12.9-35.3
			c6-13.8,14.6-26.2,23-38.5c6.3-9.3,12.7-18.5,21.5-25.7C83.7,94.4,87,92.3,88,88.1z"/>
		<path class="st1" d="M169.6,237.1c-4.8,0-7-1.5-5.2-7c4.2-12.8,4-26.4,7-39.5c2.8-12.4,5.9-24.7,10.7-36.4
			c7.3-17.7,14.5-35.4,20.8-53.4c2.7-7.8,3.1-16.4,8.1-23.5c1.7-2.4,0.1-4.5-3.2-5c-10.4-1.8-20.8-3.7-31.1-5.8
			c-3.7-0.8-7.1-2.3-2.9-6.7c6.5,4.9,14.4,4.8,21.8,6.5c8.7,2,17.5,1.9,26.3,2.7c0.8,12.8-1.4,25.4-2.5,38
			c-2.4,29.1-6.7,58-11.2,86.9c-1.2,7.5-2.3,15-3.3,22.5c-0.3,2.1-0.9,3.5-2.9,4.5C191.3,226.2,180.5,231.7,169.6,237.1z"/>
		<path class="st2" d="M222,68.9c-7.1,1.4-13.8,1.4-21.1-0.3c-7.4-1.8-15.1-2.9-22.7-4.2c-3.1-0.5-4.4-1.7-4.3-4.7
			c-0.4-4.1,2.1-4.7,5.4-4.5c0.5,0.3,0.7,0.7,0.5,1.3c-0.7,1.5-2.2,3.6,0.7,3.8c6.4,0.6,12.1,3.8,18.6,3.9
			c5.6,0.3,11.2,0.6,16.7,1.1C218.3,65.5,221.2,65.5,222,68.9z"/>
		<path class="st3" d="M199.1,64.2c-1.2,1.8-3.3,1.7-4.7,1.1c-5.1-2.1-10.4-3.1-15.9-3.3c-1.3-0.1-2.1-0.7-2.2-2.1
			c-0.2-2.4,1.3-3.4,3.4-3.7c0.8-0.6,1.5-0.5,2.3,0.1c3.4,2.8,7.9-0.1,11.3,2.3C194.2,61.5,197,62.4,199.1,64.2z"/>
		<path class="st4" d="M132.6,50.4c0.9,0.2,2.3,0.2,2.5,0.7c0.6,1.3-0.7,2.1-1.6,2.4c-3.5,0.9-6.6,0.1-8.7-3
			C127.3,50.4,129.9,50.4,132.6,50.4z"/>
		<path class="st5" d="M88,88.1c1,4-1.6,6.9-7.7,8.3C82.8,93.6,85.4,90.8,88,88.1z"/>
		<path class="st5" d="M96.2,78.2c-0.8,4-0.4,9-7,7.8C91.5,83.4,93.9,80.8,96.2,78.2z"/>
		<path class="st6" d="M182,56.3c-0.8,0-1.5,0-2.3-0.1c-0.1-0.4-0.2-0.7-0.5-1c-3.4-2.2-3.3-5-1.3-8.2c2.8-4.6,4.5-9.6,5.7-14.8
			c1.1-4.9,1.4-9.7-0.8-14.5c-0.8-1.7-3.3-3.4-0.8-5.4c2-1.7,4.7-2.3,7-1.1c4.5,2.5,9.2,5.6,10,11c1.6,11.2-3.1,21.1-7.8,30.8
			C189.2,56.8,185.4,56.5,182,56.3z"/>
		<path class="st7" d="M145.3,49.3c-1.4-2-1.7-4.1-0.7-6.4c3.3-8.2,7.3-15.9,12.8-22.8c2.2-2.7,5.1-4.5,8.5-5.6
			c2.5-0.8,4.1,0,4.5,2.7c0.1,0.8,0.4,1.6,0.1,2.3c-4,9.2-6.6,18.9-9.3,28.6C159.7,53.4,150.1,53.8,145.3,49.3z"/>
		<path class="st8" d="M145.3,49.3c3.8,2.3,8,1.2,12.1,1.2c2.4,0,2.6-2.2,2.9-4.2c1.5-10.3,5.2-19.9,10.1-29.1c2.3,0,3.8,1,3.6,3.6
			c0.8,1.6,0,3-0.6,4.3c-2.8,6-5.4,12.1-6.6,18.7c-0.2,1.3-0.8,2.5-2,3.4c-1.8,2.3-1.2,4.1,1,5.7c1.7,1.1,3.8,2.1,2.3,4.8
			c-1.4,2.4-3.3,3.8-6,3.1c-5.8-1.5-11.5-3.2-17.2-5c-1.4-0.5-2.6-1.7-2.7-3.3C142,50.3,143.5,49.6,145.3,49.3z"/>
		<path class="st9" d="M164.7,47.2c1.1-9.5,5-18,9.2-26.4c4.2-4.2,5.1-0.5,5.4,2.5c0.6,6.3-1.6,12.2-3.8,18c-0.8,2.1-1.9,4.1-3,6.1
			c-1,1.7-0.7,4.8-3.2,4.8C166.7,52.2,165.4,49.7,164.7,47.2z"/>
	</g>
</g>
</svg>
