<?xml version="1.0" encoding="utf-8"?>
<!-- Generator: Adobe Illustrator 20.0.0, SVG Export Plug-In . SVG Version: 6.00 Build 0)  -->
<svg version="1.1" id="Layer_1" xmlns="http://www.w3.org/2000/svg" xmlns:xlink="http://www.w3.org/1999/xlink" x="0px" y="0px"
	 viewBox="0 0 250 250" style="enable-background:new 0 0 250 250;" xml:space="preserve">
<style type="text/css">
	.st0{fill:#E9E8E8;}
	.st1{fill:#DCD9BC;}
	.st2{fill:#AB7A6E;}
	.st3{fill:#DDDBBF;}
	.st4{fill:#DEDCC1;}
	.st5{fill:#E2DBC5;}
	.st6{fill:#E2E1C6;}
	.st7{fill:#F7F8F7;}
	.st8{fill:#DCDBBD;}
	.st9{fill:#DCDABD;}
	.st10{fill:#D0D1D1;}
	.st11{fill:#858585;}
	.st12{fill:#BDBDBD;}
	.st13{fill:#F0EFEF;}
	.st14{fill:#F6F6F4;}
	.st15{fill:#D3998B;}
	.st16{fill:#EDCCC7;}
	.st17{fill:#D0A69D;}
	.st18{fill:#EEEEED;}
	.st19{fill:#B4B4B4;}
	.st20{fill:#818181;}
	.st21{fill:#8B8A8B;}
	.st22{fill:#E1E2E1;}
	.st23{fill:#8F8F8F;}
</style>
<g>
	<g>
		<path class="st0" d="M40.1,129.5c-2.8-1.7-5.2-3.6-6.5-6.7c0.6-1.5,0-3.3,1.3-4.6c2.9,0.9,5.7,1.4,8.6-0.2
			c1.6,0.1,3.1,0.9,4.8,0.7c7.6-1.4,15.3-2.5,21.5-8.1c2.2-2,3.3-4.2,3.3-7c0.1-1.1,0.4-2.2,1-3.2c1.9-3,3.8-2.8,4.9,0.5
			c3,10,10.5,17,16.1,25.2c1.5,2.2,3.7,4,6,5.5c2.1,1.4,4.4,2.6,5.5,5.1c-0.1,3.3,1.5,5.7,4.1,7.5c4.3,3,8.6,5.9,13.3,8.3
			c3,3.6,2.4,10.2-1.5,15.1c-2.2,2.7-4.8,4.9-8.5,5.2c-6.6-2.5-13-5.4-19.4-8.3c-9.3-4.2-17.7-10.3-27-14.4
			c-6.9-5.4-14.2-10.3-20.8-16.1C45,132,42.8,130.4,40.1,129.5z"/>
		<path class="st0" d="M151.9,190.8c0.1,0,0.3,0.1,0.4,0.1c0.5,0,1-0.3,0.4-0.7c-4.4-2.7-8.7-5.7-13.4-8c-2.6-1.2-4.4-2.9-6.1-5
			c2.1-4.8,4.4-9.5,7.3-13.9c8.3,8.5,19.1,12.3,30.2,14.7c12.9,2.7,25.3,6.9,38.1,10c2.2,0.5,3.5,2.3,4.9,3.8c0.5,5-2,8.8-5.2,12.3
			c-2.5,0.4-4.3,2.1-6.3,3.4c-6.9,4.5-13.7,3.5-20.4-0.5c-1.7-1-3.5-1.6-5.5-2c-2.7-1.7-5.7-2.7-8.6-4c-4.1-3.3-9.1-4.9-13.6-7.5
			C153.2,192.8,151.5,192.7,151.9,190.8z"/>
		<path class="st1" d="M167.8,200.6c3.2,1,6.5,1.8,9.3,3.8c3.1,0.2,5.4,2.4,7.9,3.8c6.7,3.7,12.4,2.1,18.1-1.7
			c1.5-1,2.9-2.1,4.6-2.8c2.9-3.4,5.9-6.7,5.6-11.6c-1.3-2.7-0.7-5.6-0.9-8.4c-0.4-4.3-2.1-6.4-6-7.3c-21.3-4.6-42.6-9-63.4-15.6
			c-0.9-0.3-1.7-0.5-2.6-0.5c-6.6-1.2-11.5-5.5-16.8-9.1c-4.2-4.2-9.8-6.5-14.2-10.4c-1.2-1.1-2.8-1.8-3.2-3.6
			c-0.1-0.3-0.2-0.6-0.4-0.8c-8.5-5.4-13.9-13.8-20.2-21.3c-3.6-4.3-5.1-9.5-7.3-14.3c-1.3-2.9-2.2-0.9-3.3-0.1
			c-1.2-1-1.3-2.4-0.9-3.7c0.9-3.1-0.2-5.5-2.2-7.7c1.3-1.6-1.7-2.5-0.7-4.1c5.3,0.4,5.8,5.2,6.4,8.5c2.5,13.8,10.9,24.2,19.9,33.7
			c8.4,8.9,19.1,15.4,29.3,22.2c7.5,5,15.8,8.1,24,11.1c8.4,3,17.4,4.6,26.3,6.3c4.6,0.8,9,2.3,13.6,3.2c5.9,1.2,11.7,2.8,17.7,3.4
			c3.8,0.4,6,3.4,6.6,6.6c3,17.1-5.3,31.6-24.7,32.8c-3.9,0.2-6.7-2.6-9.6-4.5c-4.2-2.7-8.5-5-13-7.2c-0.2-0.2-0.3-0.4-0.1-0.6
			C167.6,200.6,167.7,200.5,167.8,200.6z"/>
		<path class="st2" d="M123.9,150.6c5.6,2.4,10,6.8,15.9,8.8c1.5,1.1,1.8,2.4,0.8,4c-1.1,5.3-3.4,10-7.4,13.8
			c-0.4,0.2-0.7,0.3-1.1,0.5c-2.9,1.8-5.8,0.8-7.9-1.1c-2.2-1.9-4.3-2.4-6.9-2c-1.1-0.8-3.5,0.1-3.3-2.5c7.5-2,9.9-7.9,11.1-14.7
			c0.3-1.8-0.1-3.6-2.2-4.4c-0.7,0-1.1-0.4-0.9-1.1C122.2,150.9,122.9,150.5,123.9,150.6z"/>
		<path class="st3" d="M114,172.1c0.8,1.8,2.5,1.7,4.1,2.1c0.2,0.5,0,0.9-0.3,1.2c-13.9-5.2-27.3-11.1-39.9-19.1
			c-3.9-2.4-8.7-3.3-11.9-7c0.4-0.3,0.8-0.2,1,0.3c8,2.1,14.1,7.8,21.4,11.2C96.9,164.6,105.2,168.8,114,172.1z"/>
		<path class="st4" d="M35.1,118.5c-1.2,1.2,0.6,3.4-1.5,4.3c-0.9-1.4-0.1-2.6,0.3-3.9c1.1-3.5,0.7-6.6-1.4-9.8
			c-5-7.3-2.1-19.7,5.5-24c0.1,0.2,0.2,0.4,0.2,0.7c-1.6,4-3.9,7.7-4.9,12c-0.5,2.4-0.9,4.7,0.1,7.1c0.6,2,1.9,3.7,2.6,5.6
			C37.1,113.2,37.9,116.1,35.1,118.5z"/>
		<path class="st5" d="M117.8,175.3c0.1-0.4,0.2-0.8,0.3-1.2c2.1-3,4.3-0.9,5.5,0.4c2.5,2.7,5.3,3.2,8.6,3c-0.5,1.1-2.1,2.2,0.2,3.1
			c1.2,0.5,2.5,0.9,3.2,2.9C129.6,180.4,123.2,178.9,117.8,175.3z"/>
		<path class="st6" d="M167.8,200.6c-0.1,0.2-0.1,0.5-0.2,0.7c-8.6-4.6-17.1-9.1-25.7-13.7c-1.3-0.7-2.6-1.4-4-3.4
			c5.1,2.4,9.5,4.5,14,6.5c3.4,3.2,8,4.2,11.9,6.6C165.3,198.3,166.9,198.9,167.8,200.6z"/>
		<path class="st7" d="M71.2,85.2c0.6,0.6,1.3,1.2,1.8,1.9c1,1.2,0.4,1.5-0.9,1.3c-0.2,0-0.4,0-0.6-0.1c-4,0.7-7-3.1-10.9-2.7
			c-1.8,0.1-3.7,0.2-5.2-1.1c-1.7-2.4,0-2.6,1.8-2.9c1.2-1.3,2.5-1.1,4-0.6C64.5,82.4,68.3,82.9,71.2,85.2L71.2,85.2z"/>
		<path class="st8" d="M67,149.5c-0.3-0.1-0.7-0.2-1-0.3c-7.6-4.4-14.6-9.6-20.6-16c0.5-0.4,0.8-0.3,1,0.3
			C53.5,138.5,60.6,143.6,67,149.5z"/>
		<path class="st4" d="M57.1,81.7c-0.5,0.8-2.3,0.6-1.7,2.2c-0.3,0.3-0.6,0.5-1,0.7c-2.8,0.6-5.7,1-8.6,0.8c-2.6-1.4-5.3,1.6-8-0.2
			c0,0,0,0,0,0C43.8,80.8,50.6,81.8,57.1,81.7z"/>
		<path class="st1" d="M71.2,85.3c-3.3-1.6-7.3-1.3-10.1-4.2C65.2,80.9,68.6,82,71.2,85.3z"/>
		<path class="st9" d="M46.4,133.5c-0.3-0.1-0.7-0.2-1-0.3c-2.1-0.7-3.7-2.2-5.3-3.7C43.2,129.3,45.2,130.9,46.4,133.5z"/>
		<path class="st10" d="M73.9,104.1c0.7,6.4-4.3,9-8.6,11c-5.4,2.5-11.1,4.9-17.4,4.6c-1.3-3-4.1-3.2-6.8-3.7
			c-4.2-2.9-6.3-7.3-8.4-11.7c-1.4-5-0.1-9.3,2.8-13.4c0.9,0.3,1.1,1.2,0.9,1.8c-2.3,6.3,2.9,8.6,5.9,12.2c1.3-0.9,0.6-1.8,0.6-2.6
			c-0.4-5.7,5.8-12.2,11.5-12.1c2.2,0,3.2,1.6,3.5,3.5c0.3,2.5-1.6,1.9-3.1,1.9c-0.7,0-1.5-0.1-2.2,0.1c-1.3,0.6-2.6,1.3-2.6,2.8
			c0.1,1.8,1.8,1.1,2.8,1.4c0.9,0.2,1.8,0.5,2,1.6c0.2,1.4-0.9,1.8-1.9,2.1c-0.7,0.2-1.5,0.1-2,0.7c0.7,1.8,2.9,1.7,3.7,3.2
			c-0.7,2.9-3,1.5-4.3,1.9c3.1,2.6,6.3,1.1,8.4-4.2c0.5-1.2,1.6-1.8,2.4-2.6c3.8-4.1,3.7-4,7.2,0.7c1,1.3,1.6,5.4,4.6,1.7
			C73.1,104.4,73.5,104.2,73.9,104.1z"/>
		<path class="st7" d="M123.9,150.6c-0.6,0.7-2,1-1,2.4c-0.7,0.5-1.5,0.7-2,0.1c-3.1-4-8.4-5-11.8-8.4c-2-2-4.8-3.9-3-7.5
			C111.8,142,119,144.8,123.9,150.6z"/>
		<path class="st11" d="M73.9,104.1c-0.2,0.2-0.3,0.5-0.5,0.7c-3.3-3.4-5.9-7.4-7.2-11.9c-1.4-4.7,0.6-6.1,5.8-4.6c0,0,0.1,0,0.1,0
			c3.3,2.2,4.7,4.9,3,8.9c-0.4,1-0.1,2.3-0.1,3.5C74.7,101.9,74.3,103,73.9,104.1z"/>
		<path class="st7" d="M33.6,104.7c2.2,4,5,7.5,7.9,11c1.7,0.1,2,1.2,2,2.6c-2.8,2.8-5.6,2.9-8.5,0.1c1.4-3.4,1.1-6.6-1.2-9.5
			c-0.9-1.1-1.2-2.3-1.4-3.6C32.5,104.4,32.9,104.3,33.6,104.7z"/>
		<path class="st12" d="M43.5,118.4c-0.7-0.9-1.3-1.8-2-2.6c1.3-0.6,8,1.2,8.2,2.3c0.2,1.2-1.4,0.9-1.9,1.6
			C46.2,120.2,44.8,119.7,43.5,118.4z"/>
		<path class="st13" d="M140.6,163.4c-0.3-1.3-0.5-2.6-0.8-4c1.1-0.9,2.3-0.4,3.4,0c13.2,4.7,26.9,7,40.4,10.3
			c7.9,1.9,15.8,4.1,23.8,5.3c4,0.6,5.8,3.4,6.1,6.8c0.3,3.3,0.9,6.8-0.3,10.2c-13.4-6.7-27.9-9.4-42.3-12.5
			c-8.4-1.8-16.1-5.9-24.2-8.6c-0.9-0.3-1.8-0.9-1.8-1.8c0-4.3-2.3-1.4-3.5-1C139.6,166.6,142,164.8,140.6,163.4z"/>
		<path class="st14" d="M207.8,203.7c-10.1,10.1-18.8,9.5-28.9,2c-0.6-0.4-1.2-0.9-1.8-1.3c3.7-1.3,6.3,1.8,8.9,3.1
			c6.9,3.5,12.2,1,17.7-2.5C204.9,204.2,205.9,202.5,207.8,203.7z"/>
		<path class="st15" d="M132.1,158.8c1.8,6.4-0.7,11.9-6.7,14.5C129.6,169.5,129.3,163.7,132.1,158.8z"/>
		<path class="st16" d="M134.4,171c-0.1,0.3-0.3,0.5-0.4,0.7c-0.5,0.5-1,1-1.7,0.5c-0.4-0.3-0.2-0.7,0.1-1c0.8-2.6,1.7-5.2,2.5-7.7
			c0.4-1.1,0.5-2.5,2.3-1.9C137.2,165,136,168,134.4,171z"/>
		<path class="st17" d="M134.4,171c0.9-3.1,1.9-6.3,2.8-9.4C138,165.2,136.7,168.2,134.4,171z"/>
		<path class="st17" d="M132.4,171.2c0.3,1.1,1.1,0.5,1.7,0.5c-0.6,2-2.2,2.5-4.3,3.1C130.4,173.2,131,172,132.4,171.2z"/>
		<path class="st18" d="M33.6,104.7c-0.4,0.2-0.8,0.4-1.2,0.6c-2.8-6,0.8-10.9,2.8-16.1c0.6-1.5,1.8-2.7,2.7-4.1
			c2.6,0.5,5-2.9,7.8-0.4c-2.8,2.9-6.2,4.6-9.7,6.4C32.6,95.2,32.2,99.8,33.6,104.7z"/>
		<path class="st19" d="M36,91.2c2.6-3.1,5.8-5.3,9.7-6.4c3-0.3,6-0.6,8.9-0.8c1.5,1.9,4.3,2,5.8,4c0.4,0.6,1.2,1.1,1.9,0.6
			c0.9-0.8,0.2-1.6-0.4-2.2c-0.4-0.4-0.8-0.8-1-1.4c4.2-0.2,7.5,2.2,11.2,3.6c-1.7,0.1-3.9-1.1-4.8,1c-0.9,2.1-0.3,4.6,1.1,6.2
			c2.5,2.8,3.5,6.2,5.1,9.3c-0.4,1.3-0.4,3-1.8,3.4c-1.8,0.4-2.3-1.6-3.1-2.6c-1.5-1.8-2.6-3.9-4.2-6.3c-1.1,2.8-2.9,4.6-5.3,5.8
			c-0.6,0.8-1.3,1.1-2.2,0.4c-0.9-4-2.2-7.9-4.8-11.1c1.7-1.1,3.2,0.6,5.1,0.2c-0.8-3.1-1.6-5.2-5.2-2.5c-1,0.8-2.4,1.1-3.6,1.7
			c-4,2-5.3,5.3-4,9.8c0.3,0.9,1.5,1.9,0.2,2.8c-1,0.7-2,0.2-3-0.4C36.1,102.8,34.1,97.4,36,91.2z"/>
		<path class="st20" d="M60.9,84.8c0.8,1.3,4.4-0.3,3.2,3.3c-0.9,2.9-2.3,3.7-3.9,1c-1.4-2.3-5.3-1.8-5.5-5.2c0.3,0,0.6,0,0.8,0
			C57.1,85.1,59.1,84.5,60.9,84.8z"/>
		<path class="st21" d="M52.1,94.4c4.7,2.4,5.3,6.6,5.1,11.2c-0.2,1.6-1.2,2-2.6,1.9c-1-0.3-2-0.5-3.1-0.9c-1.6-0.5-2.9-1.7-2.7-3.2
			c0.3-2.2,2.2-0.3,3.4-0.8c0.6-0.3,1.3-0.5,2.3-0.8c-1.6-2.8-6.3,1.5-6.3-3C48.2,96.8,49.9,95.1,52.1,94.4z"/>
		<path class="st22" d="M54.6,107.5c0.9-0.6,1.7-1.3,2.6-1.9c0.6-0.2,1.3-0.3,1.9-0.5c1.4,4.5-2.7,4.9-5.1,6.5
			c-2.1,1.5-3.6,0.6-4.7-1.5c-0.6-1-2.3-0.8-2.6-2.7C49.4,107.1,52.1,109.7,54.6,107.5z"/>
		<path class="st23" d="M61.1,102c-0.9-1.8-1.9-3.4-2.6-5.1c-0.2-0.5,0.5-1.1,1.1-0.8c1.7,0.7,3.1,1.7,3,3.9
			C62.6,100.8,62.2,101.6,61.1,102z"/>
	</g>
</g>
</svg>
